HIERARCHY
ROOT Hips
{
  OFFSET 3.13124 94.3669 -3.18751
  CHANNELS  6 Xposition Yposition Zposition Zrotation Xrotation Yrotation
  JOINT LeftUpLeg
  {
    OFFSET 8.64259 1.95398 -2.38835
    CHANNELS 3 Zrotation Xrotation Yrotation
    JOINT LeftLeg
    {
      OFFSET 43.7702 0 0
      CHANNELS 3 Zrotation Xrotation Yrotation
      JOINT LeftFoot
      {
        OFFSET 40.6238 0 0
        CHANNELS 3 Zrotation Xrotation Yrotation
        JOINT LeftToeBase
        {
          OFFSET 12.7242 0 0
          CHANNELS 3 Zrotation Xrotation Yrotation
          End Site
          {
            OFFSET 0 0 0
          }
        }
      }
    }
  }
  JOINT RightUpLeg
  {
    OFFSET -8.2249 1.95398 -2.59336
    CHANNELS 3 Zrotation Xrotation Yrotation
    JOINT RightLeg
    {
      OFFSET 43.5653 0 0
      CHANNELS 3 Zrotation Xrotation Yrotation
      JOINT RightFoot
      {
        OFFSET 40.6238 0 0
        CHANNELS 3 Zrotation Xrotation Yrotation
        JOINT RightToeBase
        {
          OFFSET 12.7242 0 0
          CHANNELS 3 Zrotation Xrotation Yrotation
          End Site
          {
            OFFSET 0 0 0
          }
        }
      }
    }
  }
  JOINT Spine
  {
    OFFSET 0.165834 0.87714 6.61349
    CHANNELS 3 Zrotation Xrotation Yrotation
    JOINT Spine1
    {
      OFFSET 7.38962 1.71661e-005 0
      CHANNELS 3 Zrotation Xrotation Yrotation
      JOINT Spine2
      {
        OFFSET 11.9445 1.14441e-005 0
        CHANNELS 3 Zrotation Xrotation Yrotation
        JOINT Spine3
        {
          OFFSET 14.7254 4.19617e-005 0
          CHANNELS 3 Zrotation Xrotation Yrotation
          JOINT Spine4
          {
            OFFSET 10.9679 0 0
            CHANNELS 3 Zrotation Xrotation Yrotation
            JOINT RightShoulder
            {
              OFFSET 2.46616 -1.6653 3.69651
              CHANNELS 3 Zrotation Xrotation Yrotation
              JOINT RightArm
              {
                OFFSET 13.0012 0 0
                CHANNELS 3 Zrotation Xrotation Yrotation
                JOINT RightForeArm
                {
                  OFFSET 28.7848 1.52588e-005 0
                  CHANNELS 3 Zrotation Xrotation Yrotation
                  JOINT RightHand
                  {
                    OFFSET 26.5688 1.52588e-005 0
                    CHANNELS 3 Zrotation Xrotation Yrotation
                    End Site
                    {
                      OFFSET 0 0 0
                    }
                  }
                }
              }
            }
            JOINT LeftShoulder
            {
              OFFSET 2.38034 -1.29275 -3.75231
              CHANNELS 3 Zrotation Xrotation Yrotation
              JOINT LeftArm
              {
                OFFSET 16.3182 6.10352e-005 0
                CHANNELS 3 Zrotation Xrotation Yrotation
                JOINT LeftForeArm
                {
                  OFFSET 27.0901 0 0
                  CHANNELS 3 Zrotation Xrotation Yrotation
                  JOINT LeftHand
                  {
                    OFFSET 24.5451 1.52588e-005 0
                    CHANNELS 3 Zrotation Xrotation Yrotation
                    End Site
                    {
                      OFFSET 0 0 0
                    }
                  }
                }
              }
            }
            JOINT Neck
            {
              OFFSET 5.0226 -0.0266342 0
              CHANNELS 3 Zrotation Xrotation Yrotation
              JOINT Head
              {
                OFFSET 6.69363 2.86102e-005 0
                CHANNELS 3 Zrotation Xrotation Yrotation
                End Site
                {
                  OFFSET 0 0 0
                }
              }
            }
          }
        }
      }
    }
  }
}
MOTION
Frames:	10
Frame Time:	0.0333333
-72.5863 91.4088 -46.094 73.6861 -21.7387 83.3208 -172.518 32.3743 97.9138 -25.8323 -14.9072 -0.0663657 60.1613 -2.33392 -1.67159 28.7808 4.77609e-006 1.21741e-005 179.528 36.0597 82.1291 -22.8916 11.0272 0.601405 54.3918 1.16509 1.11463 28.7808 1.396e-005 2.37347e-005 0.699948 12.2888 -89.3216 2.3026 1.86787 0.64246 -9.36715 1.89434 0.559589 -31.9093 1.58844 1.17423 -11.8966 1.58843 1.17423 77.3618 -51.7402 -119.026 20.6685 15.422 -63.8073 -3.91296 -15.3404 -4.91336 18.2614 0.550481 -1.61547 -110.303 -30.6228 37.9129 -20.8525 -12.9383 -68.2793 1.30109 -16.9576 -5.34546 -12.6657 0.672856 -12.5872 -27.5482 -5.65416 10.5538 -22.488 -2.14109 -14.6312 
-72.5772 91.476 -45.3929 73.8697 -23.4339 82.9013 -172.238 31.3552 98.5123 -25.6685 -16.3919 -0.381681 59.6923 -2.76433 -1.95563 28.7808 4.77609e-006 1.21741e-005 179.534 35.8528 82.8362 -22.8283 9.78016 0.521527 54.5803 0.657054 0.764129 28.7808 1.396e-005 2.37347e-005 0.603198 12.2752 -89.4006 2.32991 1.62722 0.474328 -9.34016 1.6465 0.402233 -31.8811 1.40943 0.941531 -11.8684 1.40941 0.941506 76.6761 -52.206 -119.807 20.7733 15.3094 -63.5894 -3.90831 -15.2338 -4.91241 18.6359 0.441659 -2.32094 -109.663 -29.9086 38.4232 -20.9709 -12.7863 -58.0441 -4.99609 -15.4056 -28.0134 -7.32972 -0.320922 0.97062 -27.4602 -5.14567 10.7509 -21.5281 -1.54824 -15.6289 
-72.5518 91.5638 -44.5939 74.2233 -24.9631 82.6326 -171.909 30.2484 99.1511 -25.5482 -17.6552 -0.666058 59.0173 -3.1929 -2.26003 28.7808 4.77609e-006 1.21741e-005 179.539 35.4131 83.5739 -22.8042 8.7663 0.456887 54.8276 0.228347 0.467012 28.7808 1.396e-005 2.37347e-005 0.528471 12.2624 -89.4986 2.35725 1.42797 0.254799 -9.313 1.43778 0.191689 -31.8532 1.28535 0.672251 -11.8406 1.28534 0.672235 76.2947 -52.7284 -120.116 20.9384 15.1245 -63.4675 -3.92555 -15.6357 -4.91484 19.1275 0.528767 -1.89458 -109.044 -29.2342 38.9392 -21.2556 -12.4431 -57.993 0.477829 -4.71103 -23.9023 -8.38599 0.000177953 -6.18696 -27.0181 -4.72198 10.6261 -21.3413 -1.03419 -16.5706 
-72.5415 91.6645 -43.656 74.6913 -26.5828 82.4232 -171.537 29.0632 99.913 -25.5767 -18.8344 -0.949256 58.0718 -3.92195 -2.78481 28.7808 4.77609e-006 1.21741e-005 179.55 34.817 84.3906 -22.8216 7.54172 0.379376 55.1742 -0.365588 0.0586309 28.7808 1.396e-005 2.37347e-005 0.459307 12.268 -89.5369 2.34632 1.26804 0.128406 -9.32404 1.27245 0.0724519 -31.8635 1.17082 0.503628 -11.8508 1.1708 0.503607 75.7618 -53.527 -120.521 21.1419 14.8905 -63.4742 -3.97763 -16.8418 -4.92288 19.5196 0.580217 -1.662 -108.13 -28.5909 39.9926 -21.555 -11.9701 -59.4165 0.164103 -6.02144 -22.013 -7.13042 0.0183918 -6.98374 -26.1596 -4.37266 8.69578 -21.3254 -1.17841 -15.0422 
-72.555 91.7666 -42.6901 75.1109 -28.0224 82.0682 -171.315 28.1261 100.523 -25.9946 -19.1752 -0.927142 56.801 -4.62809 -3.34824 28.7808 4.77609e-006 1.21741e-005 179.58 34.3721 84.9833 -23.1525 6.36012 0.304267 55.5792 -0.624568 -0.121748 28.7808 1.396e-005 2.37347e-005 0.365366 12.2422 -89.5656 2.39803 1.06894 -0.0122682 -9.27254 1.06735 -0.0593121 -31.811 1.02321 0.309604 -11.7983 1.02319 0.309573 75.5311 -53.9502 -120.667 21.3262 14.6962 -63.0471 -4.00934 -17.5705 -4.9283 20.5497 0.574446 -1.86256 -107.81 -28.5449 40.4614 -21.4783 -12.1419 -59.6517 0.243474 -6.36492 -20.2839 -7.88046 0.0933187 -8.21733 -25.6561 -3.85225 7.77156 -21.3971 -0.767221 -14.8371 
-72.5524 91.814 -41.7215 75.5187 -29.3707 81.7226 -170.936 27.1159 101.094 -26.254 -19.9967 -1.30369 55.8444 -5.10131 -3.74672 28.7808 4.77609e-006 1.21741e-005 179.603 33.9665 85.4986 -23.6593 5.12628 0.227697 56.3521 -1.06924 -0.427104 28.7808 1.396e-005 2.37347e-005 0.271392 12.2224 -89.6091 2.43639 0.83899 -0.110185 -9.23435 0.833299 -0.147014 -31.7716 0.833317 0.147065 -11.759 0.83329 0.147059 74.8889 -54.2203 -121.436 21.2664 14.7847 -62.4926 -4.03839 -18.2337 -4.93364 21.0314 0.602166 -1.7962 -107.573 -28.9002 41.1249 -21.4976 -12.2384 -60.2908 1.65976 -2.57434 -16.1476 -6.71263 0.174137 -11.3677 -25.0628 -3.50614 7.40918 -21.5628 -0.332709 -15.5034 
-72.5654 91.8778 -40.7253 76.1212 -30.4172 81.4614 -170.93 25.8405 101.315 -26.0877 -21.5392 -1.15869 54.7733 -5.05171 -3.79931 28.7808 4.77609e-006 1.21741e-005 179.606 33.3865 85.8837 -24.2501 4.01243 0.155289 57.0067 -1.25116 -0.553949 28.7808 1.396e-005 2.37347e-005 0.15142 12.21 -89.6814 2.45929 0.570276 -0.235333 -9.21162 0.559281 -0.260287 -31.7477 0.615121 -0.052492 -11.735 0.615121 -0.0525121 74.4726 -54.3494 -121.955 21.2757 14.8 -61.8066 -4.0342 -18.1385 -4.93285 20.8876 0.600109 -1.78734 -107.587 -29.9175 41.8367 -21.6254 -12.2143 -62.9489 2.30611 0.280455 -8.37244 -5.81584 0.261597 -16.3134 -24.836 -3.16523 7.4724 -21.411 0.168798 -16.6286 
-72.7813 92.3963 -39.3839 77.1788 -31.4829 81.5525 -170.517 22.6222 101.544 -21.9346 -22.414 -0.6245 51.7608 -5.6053 -4.49513 28.7808 4.77609e-006 1.21741e-005 179.47 31.2177 86.4996 -22.3765 3.16007 0.0904835 56.5833 -1.85968 -0.964772 28.7808 1.396e-005 2.37347e-005 0.0322588 12.2324 -89.6761 2.4146 0.420297 -0.419428 -9.25634 0.402508 -0.436288 -31.7919 0.519425 -0.282104 -11.7792 0.519411 -0.282125 74.8842 -54.1182 -121.495 21.3851 14.6969 -61.0751 -4.02526 -17.9345 -4.93118 20.4375 0.607361 -1.6748 -107.843 -30.2013 41.588 -20.3634 -14.1297 -46.1547 -5.19285 -8.76403 -44.2392 -8.26396 -1.37586 20.2174 -23.8866 -2.68325 5.1773 -22.082 0.0170082 -13.7023 
-73.4637 91.3553 -36.2948 84.8245 -32.9556 91.9835 -164.643 24.2433 112.004 -31.2151 -12.0083 -1.88979 54.9873 -6.11831 -4.62848 28.7808 4.77609e-006 1.21741e-005 -179.672 25.7689 95.0497 -26.3672 6.69185 0.189083 59.8047 -2.77988 -1.5522 28.7808 1.396e-005 2.37347e-005 0.263311 12.9052 -89.6163 1.1045 1.20149 -2.27032 -10.5681 1.10034 -2.32091 -33.0964 1.82883 -1.8048 -13.0837 1.82882 -1.8048 75.3582 -54.3085 -120.791 21.1364 14.9933 -60.2131 -4.00068 -17.3721 -4.92678 20.461 0.336031 -3.13123 -108.178 -30.7084 41.5034 -20.2571 -14.3275 -44.8919 -4.42845 -8.00429 -43.8373 -8.60587 -1.49164 20.9452 -22.7908 -2.39766 4.16373 -23.1617 0.393604 -13.8557 
-72.7053 91.8862 -36.4488 78.1693 -35.9002 83.1219 -167.074 23.2049 106.468 -28.4644 -20.9832 -3.26063 52.0251 -5.8418 -4.64202 28.7808 4.77609e-006 1.21741e-005 179.843 30.3126 90.6887 -25.3697 0.584795 -0.0870386 59.3259 -3.25565 -1.85519 28.7808 1.396e-005 2.37347e-005 0.836927 11.7633 -90.5077 3.40324 1.89304 -3.04259 -8.27011 1.75893 -3.12355 -30.798 2.70874 -2.32879 -10.7854 2.70873 -2.3288 81.4957 -49.6356 -113.86 18.3868 17.7961 -52.244 -3.89215 -14.8561 -4.91028 20.1113 0.294081 -3.33256 -123.937 -36.318 22.3887 -18.2836 -17.2072 -41.3483 0.914634 -2.32648 -36.7778 -11.6284 -1.90952 17.7872 -38.6707 -6.64264 11.8781 -12.731 -2.19381 -25.5712 
